# xmcd CD database file
#
# Track frame offsets:
#	150
#	16340
#	34352
#	46452
#	56607
#	68620
#	84320
#	98007
#	106655
#	114237
#	126032
#	138977
#	148962
#	162472
#	174175
#	186965
#
# Disc length: 2641 seconds
#
# Revision: 3
# Processed by: cddbd v1.5.2PL0 Copyright (c) Steve Scherf et al.
# Submitted via: CDex 1.70beta2
#
DISCID=d20a4f10
DTITLE=Wilko Johnson - Call It What You Want
DYEAR=1987
DGENRE=Blues
TTITLE0=Looked Out My Window
TTITLE1=Dr. Dupree
TTITLE2=Ice On The Motorway
TTITLE3=Woolly Bully
TTITLE4=Muskrat
TTITLE5=Sneaking Suspicion
TTITLE6=Back In The Night
TTITLE7=Bottle Up And Go
TTITLE8=Messin' With The Kid
TTITLE9=Casting My Spell
TTITLE10=Think
TTITLE11=Some Other Guy
TTITLE12=Everybody's Carrying A Gun
TTITLE13=Ecstasy
TTITLE14=I Wanna Be Your Lover
TTITLE15=My Baby Your Baby
EXTD=YEAR: 1987
EXTT0=
EXTT1=
EXTT2=
EXTT3=
EXTT4=
EXTT5=
EXTT6=
EXTT7=
EXTT8=
EXTT9=
EXTT10=
EXTT11=
EXTT12=
EXTT13=
EXTT14=
EXTT15=
PLAYORDER=
